<?xml version="1.0" encoding="utf-8"?>
<!-- Generator: Adobe Illustrator 24.1.3, SVG Export Plug-In . SVG Version: 6.00 Build 0)  -->
<svg version="1.1" id="Layer_1" xmlns="http://www.w3.org/2000/svg" xmlns:xlink="http://www.w3.org/1999/xlink" x="0px" y="0px"
	 viewBox="0 0 100 100" style="enable-background:new 0 0 100 100;" xml:space="preserve">
<style type="text/css">
	.st0{fill:none;stroke:#000000;stroke-width:1.5;stroke-linecap:round;stroke-linejoin:round;stroke-miterlimit:10;}
</style>
<g>
	<path class="st0" d="M71.8,24.8v8.8H22v-8.8C22,13.9,31.1,5,42.4,5h8.9C62.7,5,71.8,13.9,71.8,24.8z"/>
	<polyline class="st0" points="56.3,4.6 56.3,2.1 62.6,2.1 62.6,5.2 	"/>
	<path class="st0" d="M71.5,33.9V75c0,12.7-10.5,23-23.5,23h-1.4c-13,0-23.5-10.3-23.5-23V33.9"/>
	<path class="st0" d="M46.9,5h10.7C68.9,5,78,13.9,78,24.8v8.8H28.2"/>
	<path class="st0" d="M77,34.1l0,40.3c0,13-10.5,23.5-23.5,23.5h-3"/>
	<line class="st0" x1="23.5" y1="71.4" x2="71.3" y2="71.4"/>
	<g>
		<path class="st0" d="M57.3,50.1c0,0.3,0,0.6,0,0.9c-0.3,3.5-2.3,6.5-5.1,8.3c-0.1,0.1-0.2,0.1-0.3,0.2c-1.6,0.9-3.4,1.4-5.3,1.4
			c-1.7,0-3.3-0.4-4.8-1.1c-0.4-0.2-0.8-0.4-1.1-0.7h0c-0.8-0.5-1.5-1.2-2.1-1.9c-0.9-1-1.6-2.2-2-3.5c-0.4-1.1-0.6-2.2-0.6-3.4V50
			c0-3.7,2-7,4.9-8.9h0c0.4-0.3,0.8-0.5,1.2-0.7c1.4-0.7,2.9-1,4.6-1c1.8,0,3.4,0.4,4.9,1.2c0.4,0.2,0.7,0.4,1.1,0.7l0,0
			c0.8,0.5,1.4,1.1,2,1.8c1,1.2,1.8,2.6,2.3,4.1c0.2,0.7,0.3,1.4,0.4,2.1C57.2,49.5,57.3,49.8,57.3,50.1z"/>
		<polygon class="st0" points="47.9,47.8 45.2,47.8 43.8,50.1 45.2,52.4 47.9,52.4 49.2,50.1 		"/>
		<path class="st0" d="M45.1,57.3l-1.4,2.3h-2c-0.4-0.2-0.8-0.4-1.1-0.7h0l-1-1.7l0.1-0.2L41,55h2.7L45.1,57.3z"/>
		<polygon class="st0" points="52,54.7 49.3,54.7 47.9,57.1 49.3,59.4 52,59.3 53.4,56.9 		"/>
		<polygon class="st0" points="47.9,52.4 45.2,52.4 43.8,54.8 45.2,57.1 47.9,57.1 49.2,54.8 		"/>
		<polygon class="st0" points="52.2,50.2 49.5,50.2 48.2,52.5 49.5,54.9 52.2,54.9 53.6,52.5 		"/>
		<polygon class="st0" points="39.8,47.8 37.1,47.8 35.8,50.1 37.1,52.4 39.8,52.4 41.2,50.1 		"/>
		<path class="st0" d="M41.2,54.8L41.1,55l-1.2,2.1h-1.4c-0.9-1-1.6-2.2-2-3.5l0.7-1.2h2.7L41.2,54.8z"/>
		<polygon class="st0" points="44.1,50.2 41.4,50.2 40.1,52.5 41.4,54.9 44.1,54.9 45.5,52.5 		"/>
		<path class="st0" d="M45.2,42.8l-1.4,2.3h-2.7l-1.4-2.3l1-1.7h0c0.4-0.3,0.8-0.5,1.2-0.7h1.9L45.2,42.8z"/>
		<polygon class="st0" points="43.9,45.1 41.2,45.1 39.8,47.4 41.2,49.8 43.9,49.8 45.2,47.4 		"/>
		<path class="st0" d="M57.3,50.1c0,0.3,0,0.6,0,0.9l-0.8,1.5h-2.7l-1.4-2.3l1.4-2.3h2.7l0.8,1.5C57.2,49.5,57.3,49.8,57.3,50.1z"/>
		<polygon class="st0" points="48.2,42.8 45.5,42.8 44.1,45.2 45.5,47.5 48.2,47.5 49.5,45.2 		"/>
		<path class="st0" d="M53.5,42.9l-1.4,2.4h-2.7l-1.4-2.4l0-0.1l1.3-2.3h2c0.4,0.2,0.7,0.4,1.1,0.7l0,0L53.5,42.9z"/>
		<polygon class="st0" points="52.2,45.3 49.5,45.3 48.1,47.6 49.5,50 52.2,50 53.5,47.6 		"/>
		<path class="st0" d="M56.8,47.1l-0.3,0.6h-2.7l-1.4-2.3l1.4-2.3h0.8C55.6,44.2,56.4,45.6,56.8,47.1z"/>
	</g>
	<rect x="61.7" y="42.5" class="st0" width="4.3" height="5.5"/>
	<rect x="61.7" y="54" class="st0" width="4.3" height="5.5"/>
	<rect x="60" y="48" class="st0" width="7.7" height="6"/>
	<circle class="st0" cx="47.7" cy="20.2" r="11.7"/>
	<path class="st0" d="M47.7,13c4,0,7.2,3.2,7.2,7.2"/>
	<line class="st0" x1="36.5" y1="76.1" x2="59.6" y2="76.1"/>
	<line class="st0" x1="23.7" y1="36.5" x2="71.3" y2="36.5"/>
	<line class="st0" x1="23.5" y1="68.5" x2="67.5" y2="68.6"/>
</g>
</svg>
