<?xml version="1.0" encoding="utf-8"?>
<!-- Generator: Adobe Illustrator 24.1.3, SVG Export Plug-In . SVG Version: 6.00 Build 0)  -->
<svg version="1.1" id="Layer_1" xmlns="http://www.w3.org/2000/svg" xmlns:xlink="http://www.w3.org/1999/xlink" x="0px" y="0px"
	 viewBox="0 0 100 100" style="enable-background:new 0 0 100 100;" xml:space="preserve">
<style type="text/css">
	.st0{fill:none;stroke:#000000;stroke-width:1.5;stroke-linecap:round;stroke-linejoin:round;stroke-miterlimit:10;}
</style>
<g>
	<path class="st0" d="M54.5,93.9h2.6c1.3,0,2.5-0.9,2.8-2.1l7.6-30.4c1-4,1.5-8,1.5-12.1V9.2c-1.9-1.6-4.1-3-6.4-4
		c-9.1-4.1-20.1-4.1-29.2,0c-2.3,1-4.6,2.3-6.4,4v39.6c0,4.4,0.6,8.9,1.8,13.2l8.2,30c0.3,1.2,1.5,2,2.8,2h14.4H54.5"/>
	<path class="st0" d="M37,92.3l1.6,3.6c0.7,1.2,1.5,2,2.8,2h16.8h0.4"/>
	<polyline class="st0" points="38.8,55.5 38.8,37 57.1,37 57.1,55.5 	"/>
	<g>
		<polyline class="st0" points="43.1,46.4 47.9,41.7 47.9,41.7 		"/>
		<polyline class="st0" points="47.9,46.1 47.9,46.1 44.4,49.6 		"/>
		<polyline class="st0" points="47.9,49.8 47.9,49.8 45.4,52.2 		"/>
		<polyline class="st0" points="47.9,53.3 47.9,53.3 46.9,54.3 		"/>
		<polyline class="st0" points="52.6,46.2 48,41.7 47.9,41.7 		"/>
		<polyline class="st0" points="47.9,46.1 48,46.1 51.3,49.4 		"/>
		<polyline class="st0" points="47.9,49.8 48,49.8 50.4,52.2 		"/>
		<polyline class="st0" points="47.9,53.3 48,53.3 49,54.3 		"/>
	</g>
	<g>
		<path class="st0" d="M50.8,10.5c-0.4,0-0.8-0.1-1.2-0.1"/>
		<polyline class="st0" points="45.9,26.4 46.3,31.7 49.2,31.7 		"/>
		<path class="st0" d="M45.6,21.8L45,10.5c0.4,0,0.9-0.1,1.3-0.1"/>
		<path class="st0" d="M58.4,12.1c-0.4-0.1-0.9-0.3-1.3-0.4"/>
		<path class="st0" d="M51.8,21.9l0.8-11.2c0.4,0.1,0.9,0.1,1.3,0.2"/>
		<polyline class="st0" points="54.3,31.7 50.9,31.7 51.3,26.5 		"/>
		<path class="st0" d="M65.3,15.3c-0.4-0.2-0.7-0.5-1.1-0.7"/>
		<path class="st0" d="M58,22.7l1.9-10.1c0.5,0.2,1,0.4,1.5,0.6"/>
		<polyline class="st0" points="59.5,31.7 55.7,31.7 56.8,27.3 		"/>
		<path class="st0" d="M43.3,10.7c-0.4,0.1-0.8,0.1-1.2,0.2"/>
		<polyline class="st0" points="40.5,26.9 41.6,31.7 44.8,31.7 		"/>
		<path class="st0" d="M39.4,22.3l-1.9-10.3c0.5-0.2,0.9-0.3,1.4-0.4"/>
		<path class="st0" d="M36,12.6c-0.5,0.2-0.9,0.4-1.4,0.6"/>
		<polyline class="st0" points="34.9,28.1 36.3,31.7 40,31.7 		"/>
		<path class="st0" d="M33,23.6l-2.4-8.3c0.4-0.2,0.8-0.5,1.2-0.7"/>
	</g>
	<path class="st0" d="M49.8,9.5c0,0.3-0.1,0.7-0.3,0.9c-0.3,0.5-0.9,0.9-1.6,0.9c-0.7,0-1.3-0.4-1.6-0.9C46.1,10.2,46,9.8,46,9.5
		c0-1,0.9-1.8,1.9-1.8C49,7.7,49.8,8.5,49.8,9.5z"/>
	<path class="st0" d="M42.2,10.4c0,0.2,0,0.3-0.1,0.5c-0.1,0.1-0.1,0.3-0.2,0.4c-0.3,0.5-0.9,0.9-1.6,0.9c-0.6,0-1.1-0.2-1.4-0.6
		c-0.1-0.1-0.2-0.2-0.2-0.3c-0.2-0.3-0.3-0.6-0.3-0.9c0-1,0.9-1.8,1.9-1.8C41.4,8.6,42.2,9.4,42.2,10.4z"/>
	<path class="st0" d="M34.6,13.1C34.6,13.1,34.6,13.1,34.6,13.1c0,0.4-0.1,0.7-0.3,0.9c-0.3,0.5-0.9,0.9-1.6,0.9
		c-0.4,0-0.7-0.1-1-0.3c-0.3-0.2-0.5-0.4-0.6-0.6c-0.2-0.3-0.3-0.6-0.3-0.9c0-1,0.9-1.8,1.9-1.8C33.8,11.2,34.6,12.1,34.6,13.1z"/>
	<path class="st0" d="M57.6,10.4c0,0.3-0.1,0.7-0.3,0.9c-0.1,0.1-0.2,0.2-0.3,0.3c-0.3,0.3-0.8,0.6-1.4,0.6c-0.7,0-1.3-0.4-1.6-0.9
		c-0.1-0.1-0.1-0.3-0.2-0.4c-0.1-0.2-0.1-0.3-0.1-0.5c0-1,0.9-1.8,1.9-1.8C56.8,8.6,57.6,9.4,57.6,10.4z"/>
	<path class="st0" d="M65.2,13.1c0,0.3-0.1,0.7-0.3,0.9c-0.2,0.3-0.4,0.5-0.7,0.7c-0.3,0.1-0.6,0.2-0.9,0.2c-0.7,0-1.3-0.4-1.6-0.9
		c-0.2-0.2-0.2-0.5-0.3-0.8c0,0,0-0.1,0-0.2c0-1,0.9-1.8,1.9-1.8C64.4,11.2,65.2,12.1,65.2,13.1z"/>
	<path class="st0" d="M66.2,25v5.6c-2.5-1.5-5.7-2.6-9.3-3.4c-1.7-0.4-3.6-0.6-5.5-0.8c-1.2-0.1-2.5-0.1-3.8-0.1c-0.6,0-1.1,0-1.6,0
		c-1.9,0.1-3.7,0.2-5.5,0.5c-2,0.3-3.9,0.7-5.6,1.3c-1.9,0.6-3.6,1.3-5.1,2.1v-5.6c1-0.4,2.1-0.7,3.3-1c2-0.6,4.1-1,6.4-1.3
		c2-0.3,4.1-0.5,6.2-0.5c0.6,0,1.2,0,1.9,0c1.5,0,2.9,0,4.3,0.1c2.1,0.2,4.2,0.4,6.2,0.8C60.9,23.3,63.7,24,66.2,25z"/>
	<path class="st0" d="M58.6,97.9h2.6c1.3,0,2.5-0.9,2.8-2.1l7.6-30.4c1-4,1.5-8,1.5-12.1V15c0-1.2-0.5-2.4-1.4-3.3L69,9.2"/>
</g>
</svg>
