<?xml version="1.0" encoding="utf-8"?>
<!-- Generator: Adobe Illustrator 24.1.3, SVG Export Plug-In . SVG Version: 6.00 Build 0)  -->
<svg version="1.1" id="Layer_1" xmlns="http://www.w3.org/2000/svg" xmlns:xlink="http://www.w3.org/1999/xlink" x="0px" y="0px"
	 viewBox="0 0 100 100" style="enable-background:new 0 0 100 100;" xml:space="preserve">
<style type="text/css">
	.st0{fill:none;stroke:#000000;stroke-width:1.5;stroke-linecap:round;stroke-linejoin:round;stroke-miterlimit:10;}
</style>
<g>
	<circle class="st0" cx="49.1" cy="51.7" r="27.7"/>
	<polyline class="st0" points="42.8,20.2 44.7,3 45.9,18 48.7,11.5 50.5,19.4 	"/>
	<polyline class="st0" points="56.6,20.4 71.3,6.3 64,19.8 	"/>
	<polyline class="st0" points="37.8,20.8 22.9,6.1 29.7,16.9 25.1,15.9 	"/>
	<polyline class="st0" points="70.3,29.8 82.3,21 70.5,24.2 71.5,19.2 68.4,19.2 	"/>
	<polyline class="st0" points="26.5,29 12.6,20.6 19.3,27 16,28 21.9,33.3 18.9,33.5 20.5,36.9 	"/>
	<polyline class="st0" points="18.9,43.5 2.3,53.2 16.8,48.4 14.8,53 18.5,52.2 	"/>
	<polyline class="st0" points="18.7,58.3 6.6,62.7 15.2,63.7 12.2,68.5 15.2,67.9 12.2,76 20.7,63.9 	"/>
	<polyline class="st0" points="24.1,70.2 15.8,90.7 22.3,82.6 24.9,92.1 26.1,74.8 28.7,82.4 28.7,76.2 	"/>
	<polyline class="st0" points="75.7,35.3 81.7,36.1 77.7,38.7 	"/>
	<polyline class="st0" points="33,80.6 33,84.9 36.6,82 36,89.9 39.2,82.6 	"/>
	<polyline class="st0" points="42.8,82.9 43.7,97 45.5,86.5 47.1,88.7 48.5,83.1 	"/>
	<polyline class="st0" points="53.1,82.2 67.4,94.3 61.6,85.9 67.2,88.7 63.6,79 	"/>
	<polyline class="st0" points="78.7,44.2 90.6,43.6 81.9,47.4 	"/>
	<polyline class="st0" points="69.7,76 71.7,77.6 72.5,72.8 78.7,75 75.5,68.9 	"/>
	<polyline class="st0" points="81.1,54 97.7,64.1 82.5,58.1 83.8,64.3 80.5,62.5 	"/>
</g>
</svg>
