<?xml version="1.0" encoding="utf-8"?>
<!-- Generator: Adobe Illustrator 24.1.3, SVG Export Plug-In . SVG Version: 6.00 Build 0)  -->
<svg version="1.1" id="Layer_1" xmlns="http://www.w3.org/2000/svg" xmlns:xlink="http://www.w3.org/1999/xlink" x="0px" y="0px"
	 viewBox="0 0 100 100" style="enable-background:new 0 0 100 100;" xml:space="preserve">
<style type="text/css">
	.st0{fill:none;stroke:#000000;stroke-width:1.5;stroke-linecap:round;stroke-linejoin:round;stroke-miterlimit:10;}
</style>
<g>
	<ellipse transform="matrix(0.2005 -0.9797 0.9797 0.2005 1.8188 66.3236)" class="st0" cx="41.5" cy="32" rx="6.9" ry="4.1"/>
	<path class="st0" d="M67.3,48.9c2.1-1.2,4.9-0.8,7,0.4c1.4,0.8,2.6,1.8,3.6,3c0.8,0.9,1.4,2.2,2.6,2.6c1.9,0.7,4.4-0.4,6,0.7
		c1.3,0.9,1.7,2.9,3.3,2.9c1.3,0.1,2-1.2,2.3-2.3c0.8-3.4-0.3-6.9-2.2-9.9c-1.9-3-4.7-5.4-7.5-7.7c-1.9-1.6-3.9-3.1-5.8-4.8
		c-0.7-0.7-1.9-1.5-2.4-2.3c-0.4-0.7-0.4-1.6-0.5-2.3c-1.8-10.8-6.5-26-23.4-26h-0.9c-16.9,0-21.6,15.2-23.4,26
		c-0.1,0.8-0.1,1.6-0.5,2.3c-0.5,0.8-1.7,1.7-2.4,2.3c-1.8,1.7-3.8,3.2-5.8,4.8c-2.8,2.3-5.6,4.8-7.5,7.7c-1.9,3-3,6.5-2.2,9.9
		c0.3,1.1,1,2.4,2.3,2.3c1.6-0.1,2-2.1,3.3-2.9c1.6-1.1,4.1,0,6-0.7c1.2-0.4,1.8-1.8,2.6-2.6c1.1-1.1,2.2-2.2,3.6-3
		c2.1-1.2,4.9-1.5,7-0.4"/>
	<ellipse transform="matrix(0.9797 -0.2005 0.2005 0.9797 -5.2386 12.3713)" class="st0" cx="58.5" cy="32" rx="4.1" ry="6.9"/>
	<ellipse class="st0" cx="50.3" cy="47.9" rx="2.8" ry="3.4"/>
	<path class="st0" d="M72,53.3c2,2.9,2.2,6.5,2.1,9.9c0,3.6-0.2,7.6,1.6,11.5c1.3,2.8,3.4,5.3,5.3,8c1.8,2.6,7,13.2-0.5,9.9
		c-1.1-0.5-2.1-1.2-3.3-1.5c-2.2-0.6-4.3,0.4-6.1,1.5c-1.8,1.2-3.7,2.5-5.9,2.6c-1.6,0.1-3.1-0.8-4.6-1C59,94,57.4,94.5,56,95.2
		c-1.4,0.7-2.8,1.6-4.3,1.6c-4,0.1-6.9-3.5-11-2.8c-1.9,0.3-3.7,1-5.6,1.1c-2.6,0.1-4.5-1.3-6.5-2.6c-1.8-1.1-3.9-2.1-6.1-1.5
		c-1.1,0.3-2.2,1-3.3,1.5c-7.5,3.4-2.3-7.3-0.5-9.9c1.9-2.7,4.1-5.2,5.3-8c1.8-3.9,1.6-7.8,1.6-11.5c0-3.5,0.1-7,2.1-9.9"/>
</g>
</svg>
