<?xml version="1.0" encoding="utf-8"?>
<!-- Generator: Adobe Illustrator 24.1.3, SVG Export Plug-In . SVG Version: 6.00 Build 0)  -->
<svg version="1.1" id="Layer_1" xmlns="http://www.w3.org/2000/svg" xmlns:xlink="http://www.w3.org/1999/xlink" x="0px" y="0px"
	 viewBox="0 0 100 100" style="enable-background:new 0 0 100 100;" xml:space="preserve">
<style type="text/css">
	.st0{fill:none;stroke:#000000;stroke-width:1.5;stroke-linecap:round;stroke-linejoin:round;stroke-miterlimit:10;}
</style>
<g>
	<path class="st0" d="M21.4,50.1c2.4-1.1,5.9-3.3,7.5-4.8c2-1.9,3-4.5,3-7.2V15.6C28,9.5,21.6,9.7,21.6,9.7h-0.2
		c0,0-6.4-0.2-10.3,5.8v22.6c0,2.7,1.1,5.3,3,7.2C15.7,46.8,19,49.1,21.4,50.1z"/>
	<rect x="15.3" y="14.8" class="st0" width="12.5" height="15.8"/>
	<polyline class="st0" points="23.4,36.1 20.3,36.1 20.3,33 	"/>
	<polyline class="st0" points="18,36.1 15,36.1 15,33 	"/>
	<polyline class="st0" points="28.8,36.1 25.8,36.1 25.8,33 	"/>
	<polyline class="st0" points="23.4,41.5 20.3,41.5 20.3,38.4 	"/>
	<polyline class="st0" points="18,41.5 15,41.5 15,38.4 	"/>
	<polyline class="st0" points="28.8,41.5 25.8,41.5 25.8,38.4 	"/>
	<path class="st0" d="M31.9,15.6l3.3-0.6v24.4c0,0,0,0.1,0,0.1c0,4-2.8,7.4-6.6,8.5l-7.3,2.1"/>
	<path class="st0" d="M35.3,15c0,0-4.1-5.4-13.9-5.2"/>
	<path class="st0" d="M14.1,45.3l3.8,9.5v40.6c4.5,1.4,14.4,2.7,22.3,0V58.7c0-6,3.7-11.4,9.3-13.6L85,31.6c1-0.4,1.6-1.3,1.6-2.4
		V9.7c0-1.4-1.1-2.5-2.5-2.5h-6.4c-1.4,0-2.7-0.8-3.4-2v0c-0.7-1.2-2-2-3.4-2H60c-1.3,0-2.5,0.6-3.2,1.7l-0.3,0.5
		c-0.7,1-1.9,1.7-3.2,1.7h-29c-2.8,0-5.5,0.7-7.9,2.1c-2.1,1.3-4.2,3.3-5.3,6.6"/>
	<path class="st0" d="M40.2,95.4l3.4-2.4c0.7-0.5,1.1-1.3,1.1-2.2V80.2c0-0.7-0.2-1.4-0.5-1.9l-0.9-1.6c-0.4-0.6-0.5-1.3-0.5-1.9V66
		c0-1.5,0.7-2.9,1.9-3.8l0,0c1-0.8,1.7-1.9,1.9-3.1c0.6-4.2,5.6-15.4,19.7-20.2"/>
	<polyline class="st0" points="86.6,9.7 88.9,12.2 88.9,27.4 86.6,29.2 	"/>
	<path class="st0" d="M42.2,50.7V19.3c0-3.8,3.1-7,7-7h37.1"/>
	<path class="st0" d="M47.6,55.7l4-1.4c1.7-0.6,3.1-1.9,3.7-3.6l3.1-8.2"/>
	<polyline class="st0" points="55.1,18 55.1,20.6 63.4,20.6 	"/>
	<polyline class="st0" points="54.8,23.9 54.8,25.7 76.9,25.7 	"/>
</g>
</svg>
