<?xml version="1.0" encoding="utf-8"?>
<!-- Generator: Adobe Illustrator 24.1.3, SVG Export Plug-In . SVG Version: 6.00 Build 0)  -->
<svg version="1.1" id="Layer_1" xmlns="http://www.w3.org/2000/svg" xmlns:xlink="http://www.w3.org/1999/xlink" x="0px" y="0px"
	 viewBox="0 0 100 100" style="enable-background:new 0 0 100 100;" xml:space="preserve">
<style type="text/css">
	.st0{fill:none;stroke:#000000;stroke-width:1.5;stroke-linecap:round;stroke-linejoin:round;stroke-miterlimit:10;}
</style>
<g>
	<path class="st0" d="M51.6,96.7c-3.7,0.9-5.9,0.5-9.4-1c-3.5-1.5-4.5-4.4-6.9-7c-2.9-3-5.4-6.2-7.5-9.8c-1.4-2.4-2.6-5-4-7.4
		c-1.4-2.4-3-4.7-4.7-7c-1.8-2.5-3.6-5-5.4-7.5c-1.4-2-4.4-6.4-2.1-8.8c1.2-1.3,4.6-0.6,5.9,0c3.2,1.7,3.4,5.8,2.8,9
		c-0.1,0.4-0.2,0.8-0.2,1.2c1.4-0.2,2.3-0.7,3.8-0.4c1.3,0.3,2.6,1.1,3.4,2.3c0.9,1.3,1.3,2.9,1.8,4.4c0.5,1.5,1.2,3,2.6,3.9
		c1.6,1,3.4,0.6,5.1,1c1.7,0.4,3.2,1,4.2,2.5"/>
	<path class="st0" d="M52.6,51.3c-1-1.1-1.8-2.1-3-2.9c-1.4-0.9-2.9-1.5-4.5-1.8c-1.6-0.3-3.5-0.2-4.6,1c-0.8,0.8-1,2-1.1,3.2
		c0,1.2,0.2,2.3,0.2,3.4c0,1.6-0.3,0.9-0.4,2.5c0,0.9,0,1.8,0.2,2.6c0.3,1.3,1.4,2.3,2.6,2.5c1.8,0.3,5.1,0.4,10.2-1.3
		c8.2-2.7,12.8,1.6,12.8,1.6"/>
	<path class="st0" d="M71.2,51.9c0.5,0.3,0.7,0.5,1.1,0.9c0.5,0.6,1.2,1.2,1.9,1.7c0.4,0.3,0.9,0.6,1.3,0.4C76,54.6,76,54,76,53.6
		c-0.1-0.7-0.4-1.4-0.6-2.1c-0.2-1.2,0.2-2.7,1.4-3.2c0.9-0.4,2.3-0.5,2.8-1.6c0.6-1.5,0.8-9,4.2-9"/>
	<path class="st0" d="M83.3,34.5c0,0,0.4-7.7,4.2-7.1c3.4,0.6,0.8,9.5,0.3,10.9c0,0.1-0.1,0.3-0.1,0.4c0,1.2,0.1,7.1-2.7,9.6
		c-2.3,2.1-2.2,6.1-3.8,8.8c-1.2,2-2.2,0.6-3,2.8c-1.5,5.2-1.5,10.7-2,16c-0.4,5.4-1.5,11-4.7,15.2s-9.2,7.1-13.8,4.7"/>
	<path class="st0" d="M41.6,43.8c0,0-4.2,0.4-4.4-6.6C37,30,33.3,21.9,39,19.8c4.8-1.8,3.2,10.2,5.7,14.3s2.9,11.1-1.3,10.3"/>
	<path class="st0" d="M36.2,19.5c0,0-1.7-3-0.8-4.9c0.8-1.9-0.4-5.4,2.5-5.4c2.9,0,2.1,2.4,2.9,5.4s0.5,4.8-1.7,5.2"/>
	<path class="st0" d="M56.8,41.6c0,0-4.2,0.6-3.3-4.5c0.6-3.7-0.5-6.1,0.3-7.5c0.3-0.6,0.1-1.4-0.5-1.7c-1.2-0.6-1-3.1-0.2-6.1
		c0.7-2.8,1.2-3.3,1.8-4.1c0.4-0.5,0.4-1.2,0-1.6c-0.7-0.8-1.5-2.5-1.5-6.1c0-6.6,5.2-10.3,6-3s-0.2,6.9,1.3,10.7
		c1.2,3.1-0.4,7.8-1,9.4c-0.1,0.4-0.1,0.8,0.1,1.1c0.8,1.2,2.2,4.9-0.6,12.2"/>
	<path class="st0" d="M68.1,46.1c0,0-0.5-3.3-2.7-4.1c-0.7-0.2-1-0.9-0.8-1.6l1.3-4.4c0.2-0.7,0.9-1.1,1.6-0.8
		c2.1,0.7,4.7,1.4,2.5-2c-0.2-0.3-0.5-0.5-0.9-0.6c-2.9-0.6-2.2-1.4-1.7-4.3c0.4-2.6,1.3-4.1,1.9-5c0.4-0.6,0.2-1.3-0.3-1.7
		c-0.8-0.7-1.5-2.2-0.4-5.4c1.9-5.8,6.9-9.4,7.1-1.3c0.2,8.1-1.5,8.4-1.3,12.2c0.2,3.9-0.6,6.9-1.9,12.4S71,47.2,68.1,46.1z"/>
	<path class="st0" d="M49.7,48.1c0.5-1.2,1.6-2.1,2.9-2.5c1.2-0.3,2.6-0.2,3.8,0c1.3,0.2,2.5,0.6,3.8,0.8c1.6,0.2,3.2,0.2,4.7,0.8
		c2.3,0.8,4,3,4.4,5.4"/>
	<path class="st0" d="M39.1,70.1c-1.6-1.9-1.4-4.9,0.4-6.6"/>
	<path class="st0" d="M53.8,95.4c2.3-2.8,3-6.6,2.6-10.2c-0.3-3.6-1.6-7-2.9-10.4"/>
</g>
</svg>
